<?xml version="1.0" encoding="utf-8"?>
<!-- Generator: Adobe Illustrator 21.0.0, SVG Export Plug-In . SVG Version: 6.00 Build 0)  -->
<svg version="1.1" id="图层_1" xmlns="http://www.w3.org/2000/svg" xmlns:xlink="http://www.w3.org/1999/xlink" x="0px" y="0px"
	 viewBox="0 0 16 16" style="enable-background:new 0 0 16 16;" xml:space="preserve">
<style type="text/css">
	.st0{fill:#888888;}
</style>
<title>icon_user_normal</title>
<desc>Created with Sketch.</desc>
<g id="icon_user_normal">
	<g id="矩形-copy" transform="translate(2.000000, 0.000000)">
		<g id="Mask">
			<g id="Group-10">
				<path id="Fill-2" class="st0" d="M6,1.5C4.1,1.5,2.5,3.1,2.5,5S4.1,8.5,6,8.5S9.5,6.9,9.5,5S7.9,1.5,6,1.5 M6,9.5
					c-2.5,0-4.5-2-4.5-4.5s2-4.5,4.5-4.5s4.5,2,4.5,4.5S8.5,9.5,6,9.5"/>
				<path id="Fill-4" class="st0" d="M0.5,15C0.2,15,0,14.8,0,14.5c0-3.3,2.7-6,6-6c0.3,0,0.5,0.2,0.5,0.5S6.3,9.5,6,9.5
					c-2.8,0-5,2.2-5,5C1,14.8,0.8,15,0.5,15"/>
				<path id="Fill-4_1_" class="st0" d="M11.5,15c0.3,0,0.5-0.2,0.5-0.5c0-3.3-2.7-6-6-6C5.7,8.5,5.5,8.7,5.5,9S5.7,9.5,6,9.5
					c2.8,0,5,2.2,5,5C11,14.8,11.2,15,11.5,15"/>
			</g>
		</g>
	</g>
</g>
</svg>
